<svg id="CoTinker_logo_sort" xmlns="http://www.w3.org/2000/svg" viewBox="0 0 256.55 75.94"><defs><style>.cls-1{fill:#9e612b;}.cls-2{fill:#071049;}.cls-11,.cls-3{fill:#27261f;}.cls-4{fill:#b9d4ff;}.cls-5{fill:#c18346;}.cls-6{fill:#9e3536;}.cls-7{fill:#201910;}.cls-8{fill:#326f39;}.cls-9{fill:#2b337e;}.cls-10{fill:#d44549;}.cls-11{stroke:#27261f;}.cls-11,.cls-28{stroke-miterlimit:10;}.cls-11,.cls-28,.cls-29{stroke-width:0.1px;}.cls-12{fill:#301705;}.cls-13{fill:#3f2610;}.cls-14{fill:#a11;}.cls-15{fill:#f23636;}.cls-16{fill:#141310;}.cls-17{fill:#074870;}.cls-18{fill:#1a6093;}.cls-19{fill:#267fb5;}.cls-20{fill:#caffbd;}.cls-21{fill:#34a50f;}.cls-22{fill:#fff;}.cls-23{fill:#efbc84;}.cls-24{fill:#1d3300;}.cls-25{fill:#ffcf8f;}.cls-26{fill:#ffbbfd;}.cls-27{fill:#f46311;}.cls-28,.cls-29{fill:none;stroke:#000;}.cls-29{stroke-linecap:round;stroke-linejoin:round;}.cls-30{fill:#2a4f02;}.cls-31{fill:#3d6607;}</style></defs><polygon class="cls-1" points="36.29 68.77 37.11 71.72 38.84 71.1 38.41 66.31 36.29 68.77"/><path class="cls-2" d="M163.8,396s1,3.94,4.22,3.42a93.23,93.23,0,0,0,10.22-2.95l2.2,6.56,3.26-.55L182,393.67a2.79,2.79,0,0,0-2.4-2.25c-2.28-.13-10.56-1.49-10.56-1.49Z" transform="translate(-144.5 -333.4)"/><path class="cls-3" d="M181.1,404.45l2.42-.12a3,3,0,0,0,2.77,1.13s.74,0,.79,1l-5.9.49Z" transform="translate(-144.5 -333.4)"/><path d="M144.5,378.06c0-14.21,11.41-25.41,26.11-25.41a27.25,27.25,0,0,1,12.46,2.94l-1.26,7.49a21.2,21.2,0,0,0-11.2-3.29,18.24,18.24,0,1,0,0,36.47,21.39,21.39,0,0,0,11.83-3.64l1.33,7.49a28.69,28.69,0,0,1-13.37,3.36C155.84,403.47,144.5,392.27,144.5,378.06Z" transform="translate(-144.5 -333.4)"/><path d="M188.6,387c0-9.31,7.42-16.45,16.94-16.45s16.87,7.14,16.87,16.45-7.42,16.38-16.87,16.38S188.6,396.19,188.6,387Zm27-.07a10,10,0,1,0-10,10.22A9.91,9.91,0,0,0,215.55,386.88Z" transform="translate(-144.5 -333.4)"/><path d="M242.43,360.63v41.93h-7.49V360.63H221.36l1.19-7.07h32.2l1.19,7.07Z" transform="translate(-144.5 -333.4)"/><path d="M260.07,359.72a4.62,4.62,0,1,1,4.62,4.48A4.5,4.5,0,0,1,260.07,359.72Zm1.12,12.11,7.07-1.12v31.85h-7.07Z" transform="translate(-144.5 -333.4)"/><path d="M306.62,383.52v19h-7.07v-18.2c0-5-2.8-7.63-6.86-7.63-4.41,0-7.56,3.15-7.56,8.12v17.71h-7.08v-30.8l6.8-1.05v4.06a12.44,12.44,0,0,1,9.73-4.27C301.86,370.5,306.62,375.4,306.62,383.52Z" transform="translate(-144.5 -333.4)"/><path d="M334.55,402.56,322.86,387.3v15.26h-7.08v-49.7l7.08-1.05v33.53L334,371.27h8.68l-12.53,15,13.16,16.31Z" transform="translate(-144.5 -333.4)"/><path d="M373.4,392.13l2.31,5.67a20.74,20.74,0,0,1-14,5.53c-9.81,0-16.95-7.14-16.95-16.38a16.31,16.31,0,0,1,16.67-16.45c7.91,0,14.21,5.18,15.19,13.86l-24.23,7.84a10.17,10.17,0,0,0,9.39,5.39C365.84,397.59,369.76,395.91,373.4,392.13Zm-22.2-5.46,18-5.88a8.28,8.28,0,0,0-7.77-4.62C355.75,376.17,351.41,380.72,351.2,386.67Z" transform="translate(-144.5 -333.4)"/><path d="M401.05,370.71v6.65c-6.59,0-10.09,3.15-10.09,9.8v15.4h-7.07v-30.8l6.65-1V376C392.58,372.53,396,370.71,401.05,370.71Z" transform="translate(-144.5 -333.4)"/><path class="cls-4" d="M179,374.66l1.08-1.6a.72.72,0,0,0-.41-1c-.9-.42-6.16-3.2-5.94-4.22.35-1.55,1-5.08,3.06-4.44s7.91,2.2,10.41,3.17c.63.24,8,2.63,7.53,4.42s-1.23,5.29-4.5,4.42l-5.51-1.68a5.9,5.9,0,0,0-3.56.14Z" transform="translate(-144.5 -333.4)"/><polygon class="cls-5" points="31.47 69.62 31.16 72.67 33 72.72 34.35 68.11 31.47 69.62"/><path class="cls-1" d="M167.09,384.7l3.76,4.36a4.56,4.56,0,0,0,2.33,1.26,59.47,59.47,0,0,0,6.48-.4s.25.62,1.8.19c0,0,1.14.31.94.77,0,0,.61,1.14.35-.88-.21-1.64-2.21-1.52-2.92-1.42l-.26,0-6-1-2.3-5.38Z" transform="translate(-144.5 -333.4)"/><path class="cls-6" d="M171.61,382.51l-3.17,1.88.07-4.34.48-2s.24-.35.36-.32C170.55,378.07,171.61,382.51,171.61,382.51Z" transform="translate(-144.5 -333.4)"/><path class="cls-5" d="M165.86,375.39l1.56-1.86.86-4.2,4,.26,1.13,1.51a5.45,5.45,0,0,0,.28,2.86s.31.6-1,0l-.5,1.1-2.18.54a2.45,2.45,0,0,0-.94,1.34C168.35,379.14,165.86,375.39,165.86,375.39Z" transform="translate(-144.5 -333.4)"/><path class="cls-7" d="M171,372.06a2.65,2.65,0,0,1,.67-1.15,4.65,4.65,0,0,0,1.06-1.37l-4.11-1.65s-2.27.65-1.68,3.5c0,0-.09,2.44.87,2.12s1.21-.07,1.09-.61c0,0-1.14-1.82.51-1.85.31,0,.76.81.72,1" transform="translate(-144.5 -333.4)"/><path class="cls-5" d="M169.81,371.88c-.31.94-1.06,2.27-.63,2.85.7.94,2.17,1.94,2.58,1.27a6.25,6.25,0,0,0,.85-2c.11-.27-.4-.35-1.5-.21-.48.07-.56-.48-.44-1.14" transform="translate(-144.5 -333.4)"/><path class="cls-8" d="M166.29,370.44l10.92,1.25a.7.7,0,0,0-.69-.91l-2.56-.24s-.54-3.67-4-3.22a3.94,3.94,0,0,0-2.83,1.08,2.75,2.75,0,0,0-.72,1l-.06.27Z" transform="translate(-144.5 -333.4)"/><circle class="cls-7" cx="28.17" cy="38.93" r="0.22"/><rect class="cls-7" x="171.87" y="371.49" width="1.46" height="0.38" rx="0.15" transform="translate(-157.01 -327.34) rotate(-1.94)"/><path class="cls-9" d="M162.44,391.06s-.52,4,2.67,4.73a92.87,92.87,0,0,0,10.58,1l-.36,6.91,3.24.69,1.64-8.85s.54-2.72-1.41-3S166,390.12,166,390.12Z" transform="translate(-144.5 -333.4)"/><path class="cls-10" d="M168.58,386.66c-.21,2.13,2.08,4.4,2.08,4.4-2,.2-8.38,3.66-8.38,3.66s-1.23-3.24-.24-11.36a18.32,18.32,0,0,1,3.82-8.41s1.87,2.08,3.59,1.77c0,0,2.69,9.09,1.91,11.63-.41,1.32-6.25-1.8-6.25-1.8l-.78-1.59Z" transform="translate(-144.5 -333.4)"/><path class="cls-3" d="M175.43,405.26l2.29.77a3,3,0,0,0,2.16,2.07s.71.24.36,1.25l-5.66-1.71Z" transform="translate(-144.5 -333.4)"/><path class="cls-5" d="M166.17,383.59l3,6.14a4.64,4.64,0,0,0,1.84,1.49c1.18.47,6,1.51,6,1.51s.17.8,1.6.62c0,0,1,.63.78,1.15,0,0,.45,1.51.39-1s-2.74-2.39-2.74-2.39l-5.31-2.58-2.37-5.75Z" transform="translate(-144.5 -333.4)"/><polyline class="cls-10" points="25.07 47.92 25.47 50.07 21.41 50.88 20.33 49.1"/><rect class="cls-11" x="180.78" y="386.12" width="2.54" height="5.09" rx="0.2" transform="matrix(0.89, 0.46, -0.46, 0.89, 56.68, -373.5)"/><path class="cls-1" d="M181.28,388.44s.51-.06.15.34-1.39,1.05-1.79.79.32-.92.32-.92Z" transform="translate(-144.5 -333.4)"/><polygon class="cls-12" points="203.58 44.61 200.5 46.15 199.71 44.23 204.03 40.98 203.58 44.61"/><path class="cls-3" d="M345.94,379.46l-1.72-2.1a3.35,3.35,0,0,1-3-1.45s-.54-.65-1.46.11l4,5.29Z" transform="translate(-144.5 -333.4)"/><polygon class="cls-13" points="205.15 45.49 202.91 48.11 201.43 46.65 204.14 41.97 205.15 45.49"/><path class="cls-3" d="M348.23,381.06l-2.4-1.27a3.37,3.37,0,0,1-3.37-.16s-.74-.39-1.29.68l5.78,3.3Z" transform="translate(-144.5 -333.4)"/><path class="cls-14" d="M373.58,366.78s.62,4.24-.87,5.85-12.28,1.39-16.58.35c-1.27-.3-8.58,5.26-8.58,5.26l-2.64-2s7.1-8.69,10.37-9.22c3.07-.49,11.24-.56,11.24-.56Z" transform="translate(-144.5 -333.4)"/><path class="cls-15" d="M373.58,366.78s.62,4.24-.87,5.85-12.28,1.39-16.58.35c-1.27-.3-7.32,7.26-7.32,7.26l-2.66-2.47s6.09-8.74,9.37-9.27c3.07-.49,12.11-1,12.11-1Z" transform="translate(-144.5 -333.4)"/><polygon class="cls-3" points="216.21 35.43 211.08 35.68 209.56 32.9 213.3 32.45 216.21 35.43"/><polygon class="cls-16" points="216.21 34.67 211.08 34.93 209.56 32.14 213.3 31.7 216.21 34.67"/><path class="cls-12" d="M355.35,365.74c-.34-1.63,1.59-2.18,2.3-2.32l.26-.05,2.94-1.62.72,2.06c-1.65.44-3.32.83-3.32.83s0,.67-1.65.77c0,0-1,.67-.63,1C356,366.46,355.76,367.73,355.35,365.74Z" transform="translate(-144.5 -333.4)"/><path class="cls-17" d="M366.47,356.44s-.63,3.41-7.31,5.11c0,0-1.74,1.66.3,3.59s7.9-3.06,7.9-3.06l1.18-3.11Z" transform="translate(-144.5 -333.4)"/><path class="cls-13" d="M370.88,355.45l-.82-3.06.51-4.27-3.89-1-1,.69a1.66,1.66,0,0,0-.67.95,5.81,5.81,0,0,1-1.06,2.08s-.48.47.94.27l.13,1.2,1.9,1.21a10.2,10.2,0,0,1,1,2.17C368.56,357.94,370.88,355.45,370.88,355.45Z" transform="translate(-144.5 -333.4)"/><path class="cls-13" d="M368.31,350.06c0,1,.29,2.5-.3,2.92-1,.68-2.69,1.16-2.87.4a6.55,6.55,0,0,1-.19-2.15c0-.28.49-.2,1.49.28.45.22.69-.28.79-.94" transform="translate(-144.5 -333.4)"/><circle class="cls-7" cx="220.95" cy="16.19" r="0.22"/><path class="cls-13" d="M355.62,366c0-2,3-1.81,3-1.81l2.11-.66.65,1.87c-1.43.07-2.68.11-2.68.11s-.16.64-1.77.42c0,0-1.09.46-.83.9C356.08,366.85,355.62,368.06,355.62,366Z" transform="translate(-144.5 -333.4)"/><rect class="cls-7" x="365.04" y="348.9" width="1.23" height="0.22" rx="0.11" transform="translate(487.16 445.43) rotate(-165.42)"/><path class="cls-18" d="M370.92,354s4,5.9,2.66,12.81c0,0-4.16,1.85-6.56.45-.88-.51-1.6-9.37-.3-11.48,0,0,.45-.71.83-.8C367.55,355,368.63,355.2,370.92,354Z" transform="translate(-144.5 -333.4)"/><path class="cls-19" d="M367.82,355.84S366,361.93,362,362.2s-2.49,3.82-2.49,3.82.32,3.64,5.59.93,5.14-9,5.14-9S370.19,353.08,367.82,355.84Z" transform="translate(-144.5 -333.4)"/><polygon class="cls-3" points="216.21 34.67 216.21 35.43 211.08 35.68 211.03 34.91 216.21 34.67"/><polygon class="cls-3" points="206.61 29.79 211.08 35.62 210.02 32.8 205.45 26.67 206.61 29.79"/><polygon class="cls-3" points="205.45 25.92 206.61 29.03 206.61 29.79 205.45 26.67 205.45 25.92"/><polygon class="cls-16" points="206.61 29.03 211.08 34.87 210.02 32.05 205.45 25.92 206.61 29.03"/><path class="cls-20" d="M361.3,348.65l-1.41-4.37c-.37-1.33-.62-2.24-1.11-2.34-1-.2-15.7-1.35-15.71-2.39,0-1.59-.12-6.28,2.07-6.14s20.19,2.38,22.84,2.74c.67.09,2.1-.09,2,1.76s.05,4.66-3.32,4.57l-2.6-.08h0A3.12,3.12,0,0,0,361,346Z" transform="translate(-144.5 -333.4)"/><path class="cls-7" d="M366.69,344.61s-.6-1.78,1.22-1.4c0,0,.37-1.2,1.31-.18,0,0,.87-1.36,1.47.12,0,0,1.05-.5,1.06.49,0,0,1.74-.82,1.41,1.23,0,0,2,.59.59,2,0,0,.72.25,0,1,0,0,.81.74-.35,1.22,0,0-.79,1.67-1.62-.05,0,0-.57,1.22-1.13,0,0,0-2.68.36-1.28-1.39,0,0-1.52,1.19-1.32-.61,0,0-1.53.62-.88-.79C367.15,346.21,365.26,345.65,366.69,344.61Z" transform="translate(-144.5 -333.4)"/><path class="cls-7" d="M367.2,349.39a2.26,2.26,0,0,1-1.29-1.81s-.11-1,1.77-1.36a3.79,3.79,0,0,1,3.27,1.21s.21,5-1,5a1.46,1.46,0,0,1-1.5-1.11c-.26-1.17.49-2.95-1.21-1.89" transform="translate(-144.5 -333.4)"/><path class="cls-21" d="M347.17,337.06l-.1.83-.26,0,.11-.8c0-.22-.08-.35-.24-.37a.32.32,0,0,0-.35.32l-.1.77-.25,0,.1-.8a.28.28,0,0,0-.24-.36.33.33,0,0,0-.35.32l-.1.77-.25,0,.16-1.31h.25l0,.18a.45.45,0,0,1,.4-.14.42.42,0,0,1,.36.28.52.52,0,0,1,.46-.18A.48.48,0,0,1,347.17,337.06Z" transform="translate(-144.5 -333.4)"/><path class="cls-21" d="M348.21,338v-.09a.5.5,0,0,1-.78-.46.48.48,0,0,1,.56-.42.43.43,0,0,1,.29.15v-.07c0-.17,0-.26-.25-.29a.92.92,0,0,0-.33,0l.07-.21a.81.81,0,0,1,.31,0c.33,0,.48.22.45.5l-.08.66,0,.25Zm0-.45a.28.28,0,0,0-.26-.32.28.28,0,0,0-.32.24.28.28,0,0,0,.25.32A.29.29,0,0,0,348.25,337.58Z" transform="translate(-144.5 -333.4)"/><path class="cls-21" d="M349.61,338.21l-.44-.72-.09.65-.25,0,.27-2.12h.26l-.19,1.45.59-.55.32,0-.64.57.5.76Z" transform="translate(-144.5 -333.4)"/><path class="cls-21" d="M351.28,338l.06.22a.8.8,0,0,1-.61.17.7.7,0,1,1,.16-1.39.63.63,0,0,1,.56.65l-1.09.2a.44.44,0,0,0,.4.32A.64.64,0,0,0,351.28,338Zm-.94-.36.85-.16a.38.38,0,0,0-.33-.26A.46.46,0,0,0,350.34,337.63Z" transform="translate(-144.5 -333.4)"/><path class="cls-21" d="M352,336.38l.48.07a1,1,0,1,1-.26,2.08l-.48-.06Zm.25,1.9a.8.8,0,1,0,.19-1.58l-.21,0-.19,1.58Z" transform="translate(-144.5 -333.4)"/><path class="cls-21" d="M355.47,339l-1.31-1.8-.19,1.52-.27,0,.27-2.18,1.31,1.8.19-1.49.28,0Z" transform="translate(-144.5 -333.4)"/><path class="cls-21" d="M357.21,338.49l-.78-.1-.37.63-.29,0,1.24-2,.69,2.29-.29,0Zm-.07-.26-.2-.7-.38.63Z" transform="translate(-144.5 -333.4)"/><path class="cls-21" d="M357.88,339.05l.09-.27a.88.88,0,0,0,.54.33.34.34,0,0,0,.42-.3.38.38,0,0,0-.26-.39l-.12-.06a.62.62,0,0,1-.44-.67.57.57,0,0,1,.68-.48,1,1,0,0,1,.51.23l-.08.26a.82.82,0,0,0-.46-.25.31.31,0,0,0-.38.27c0,.15.05.28.3.4l.13.06a.61.61,0,0,1-.33,1.18A1,1,0,0,1,357.88,339.05Z" transform="translate(-144.5 -333.4)"/><path class="cls-21" d="M359.93,338.39l-.09.69a.19.19,0,0,0,.17.23.4.4,0,0,0,.19,0l0,.22a.53.53,0,0,1-.23,0,.38.38,0,0,1-.35-.46l.09-.71-.2,0,.07-.21.16,0,0-.29.27-.11-.05.43.37,0,0,.23Z" transform="translate(-144.5 -333.4)"/><path class="cls-21" d="M361.34,338.32l0,.24a.39.39,0,0,0-.49.38l-.09.67-.25,0,.17-1.31h.24l0,.22A.5.5,0,0,1,361.34,338.32Z" transform="translate(-144.5 -333.4)"/><path class="cls-21" d="M361.62,338.4h.26l-.17,1.34-.25,0Zm0-.53a.18.18,0,0,1,.19-.15.17.17,0,0,1,.15.19.16.16,0,0,1-.19.15A.17.17,0,0,1,361.64,337.87Z" transform="translate(-144.5 -333.4)"/><path class="cls-21" d="M363.42,339.13l-.1.8-.25,0,.1-.77a.32.32,0,0,0-.27-.4.36.36,0,0,0-.4.34l-.1.75-.25,0,.17-1.31h.24l0,.18a.52.52,0,0,1,.44-.14A.51.51,0,0,1,363.42,339.13Z" transform="translate(-144.5 -333.4)"/><path class="cls-21" d="M365.06,339l-.22-.05a.54.54,0,0,1,.14.44.6.6,0,0,1-.35.46.51.51,0,0,1,.19.47.59.59,0,0,1-1.16-.05l.22-.08a.37.37,0,0,0,.32.39.34.34,0,1,0,.08-.68.42.42,0,0,0-.34.13l-.08-.19a.26.26,0,0,1,.11-.07.59.59,0,0,1-.24-.54.6.6,0,0,1,.71-.5l.69.05Zm-.32.37a.39.39,0,0,0-.77-.1.39.39,0,0,0,.77.1Z" transform="translate(-144.5 -333.4)"/><path class="cls-21" d="M365.18,340.06l.07-.21a.67.67,0,0,0,.36.19.2.2,0,0,0,.23-.16c0-.09,0-.15-.2-.23l-.05,0a.42.42,0,0,1-.27-.43.39.39,0,0,1,.46-.32.85.85,0,0,1,.36.14l-.07.21a.64.64,0,0,0-.31-.14c-.12,0-.2,0-.21.13s0,.14.18.22l0,0c.22.11.33.26.3.45a.41.41,0,0,1-.49.35A.78.78,0,0,1,365.18,340.06Z" transform="translate(-144.5 -333.4)"/><path class="cls-21" d="M366.45,339.4a1.63,1.63,0,0,1,.86-1.27l.12.21a1.45,1.45,0,0,0-.29,2.32l-.17.18A1.64,1.64,0,0,1,366.45,339.4Z" transform="translate(-144.5 -333.4)"/><path class="cls-21" d="M367.27,340.68a1.44,1.44,0,0,0,.74-1.08,1.49,1.49,0,0,0-.44-1.24l.16-.17a1.66,1.66,0,0,1-.34,2.7Z" transform="translate(-144.5 -333.4)"/><path class="cls-22" d="M223.28,356.31c0,.07,0,.05-.06.1s-.07,0-.07-.07v0s0,0,.06-.05h.06S223.28,356.29,223.28,356.31Zm.06.4s0,.09,0,.13,0,.07,0,.1,0,.06,0,.08a.14.14,0,0,1,0,.06.09.09,0,0,1,0,.07s-.05,0-.08,0-.06,0-.06,0l0,0a.2.2,0,0,1,0-.07s0-.08,0-.11,0-.07,0-.11a1.36,1.36,0,0,1,0-.2s0-.06,0-.08a0,0,0,0,1,0,0s0,0,0,0,.05.05.05.09A.57.57,0,0,1,223.34,356.71Z" transform="translate(-144.5 -333.4)"/><path class="cls-22" d="M224.13,356.17l.07.06s.07.09.06.13,0,.05,0,.05a.08.08,0,0,1-.08,0,.24.24,0,0,0-.13-.13l-.08,0s-.06,0-.08,0,0,.05,0,.08a.41.41,0,0,1,0,.11,1,1,0,0,0,0,.17s0,0,.07,0H224a.06.06,0,0,1,.06,0s0,0,.06,0,.06,0,.06.06,0,.06,0,.07h-.08s0,0-.05,0l0,0h0s0,0-.06,0a.22.22,0,0,0,0,.11,1.42,1.42,0,0,0,.08.18.17.17,0,0,1,0,.07.09.09,0,0,1,0,.06s0,0,0,0l-.06-.06a.74.74,0,0,1,0-.14.53.53,0,0,1,0-.12s0-.06-.05-.05-.15.07-.16.05h0l0,0s0,0,0,0,0,0,0,0a.12.12,0,0,1,.05-.05s.08,0,.1,0l.1,0a.19.19,0,0,0,0-.08,1.11,1.11,0,0,1,0-.17.76.76,0,0,1,0-.16c0-.05,0-.06.06-.09a.1.1,0,0,1,.05,0,0,0,0,0,0,0,0,.37.37,0,0,1,.21.06S224.12,356.15,224.13,356.17Z" transform="translate(-144.5 -333.4)"/><path class="cls-22" d="M225.19,356a.15.15,0,0,1-.06.05l-.06.09c-.06,0-.07.14-.07.21s0,.07,0,.11,0,.08,0,.12a.41.41,0,0,0,0,.11s0,.05.05.09,0,0,0,.07a.47.47,0,0,0,.07.12l.14.13s.05,0,0,0,0,0-.06,0l-.05,0h0s0,0-.05,0a1.09,1.09,0,0,1-.13-.17l-.06-.09a.36.36,0,0,1,0-.09.29.29,0,0,1,0-.09s0,0,0,0v-.06a.41.41,0,0,1,0-.11.36.36,0,0,1,0-.23.39.39,0,0,1,.1-.19s0,0,0-.06l.08-.09s.06,0,.06.06S225.21,356,225.19,356Z" transform="translate(-144.5 -333.4)"/><path class="cls-22" d="M225.81,355.83s0,.07,0,.1a.53.53,0,0,0,0,.12s0,.07,0,.1.06,0,.07,0,0,0,.07,0,.13,0,.12.08-.1.07-.16.08-.08,0-.08.05a.08.08,0,0,1,0,.07s0,0,0,.05a.41.41,0,0,0,0,.11.61.61,0,0,1,0,.13s0,.1.06.09.07,0,.1-.06.09,0,.11,0a.08.08,0,0,1,0,.12.31.31,0,0,1-.09.07c-.05,0-.08.05-.13,0l-.1,0s0,0-.06-.08a1.36,1.36,0,0,1-.06-.29s0-.09,0-.14a.14.14,0,0,0,0-.06l0,0h-.06s0,0,0,0a.14.14,0,0,1-.12,0s0-.05,0-.07,0,0,.07-.05.05,0,.09,0,.08,0,.11,0h0a.44.44,0,0,0,0-.1.22.22,0,0,1,0-.08.22.22,0,0,0,0-.08,1,1,0,0,1,0-.1s.05,0,.07,0S225.79,355.82,225.81,355.83Z" transform="translate(-144.5 -333.4)"/><path class="cls-22" d="M226.82,356.41l0,0a.13.13,0,0,1,0,.06.32.32,0,0,0,0,.09s0,.07,0,.08,0,.07,0,.1-.08.07-.08.13,0,.07,0,.11v.07s0,0,0,0a.16.16,0,0,1,0,.1s0,.1,0,.11v0s0,0,0,0,0-.09,0-.13a1.63,1.63,0,0,1,0-.44v-.08s0,0,0-.06-.06-.05-.08-.07l-.1-.09s0-.05,0-.07a.34.34,0,0,1-.06-.06l-.06-.07a.09.09,0,0,1,0-.05s0,0,0,0,0,0,0-.05a.06.06,0,0,1,.08,0,1.09,1.09,0,0,1,.13.17.47.47,0,0,1,.06.09s0,0,0,.05.05,0,.07.06,0-.09,0-.11,0-.07,0-.1.05-.07.05-.11a.1.1,0,0,1,0-.09l0,0s0,0,0,0,.09.09,0,.15A.36.36,0,0,0,226.82,356.41Z" transform="translate(-144.5 -333.4)"/><path class="cls-22" d="M227.64,356.18a.34.34,0,0,1,0,.1.51.51,0,0,1-.13.3s0,0-.05,0-.05,0-.07,0-.07,0-.07.06,0,0,0,.1a.69.69,0,0,0,0,.13s0,.08,0,.12,0,.06-.07.06,0,0-.05,0,0-.06,0-.09,0-.05,0-.09a1.25,1.25,0,0,0,0-.19s0,0-.07,0,0,0,0,0,0,0,0,0,.08-.05.06-.13l0-.08s0,0-.07,0l0,0a.11.11,0,0,1,0,0s0,0,0,0,0,0,0,0,0,0,0,0,0,0,0,0,.05,0,.07,0a.65.65,0,0,1,.13,0s0,0,.05,0,0,0,0,0,.11,0,.14.06A.24.24,0,0,1,227.64,356.18Zm-.36.13s0,.05,0,.08l0,.11c0,.05,0,.05,0,.05s0,0,.06,0,0,0,0,0,0,0,0,0,0-.07,0-.09,0-.07,0-.08,0,0,0-.06,0,0-.09,0l-.13.06S227.26,356.29,227.28,356.31Z" transform="translate(-144.5 -333.4)"/><path class="cls-22" d="M228.36,356.15c0,.06,0,.09,0,.09h0a.06.06,0,0,0-.06,0H228l-.13,0v0a.05.05,0,0,0,0,0s0,0,0,0l.05,0,.07,0h.18l.06,0a.2.2,0,0,0,.11-.06.05.05,0,0,1,0,0h0s0,0,0,0v0c0,.05-.05.1-.16.15l-.07,0h-.05l-.05,0a.2.2,0,0,1-.1,0l0,0-.08,0-.1-.09a.15.15,0,0,1-.06-.11s0,0,0-.07,0,0,0,0v0a.35.35,0,0,0,0-.06.07.07,0,0,0,0-.05.22.22,0,0,1,.1-.14.44.44,0,0,1,.16-.06.47.47,0,0,1,.19.06.38.38,0,0,1,.11.16A.13.13,0,0,1,228.36,356.15Zm-.44-.08a.08.08,0,0,0,0,0l0,0h.22s.05,0,0,0h0a.1.1,0,0,0-.07-.07H228l0,0A0,0,0,0,0,227.92,356.07Z" transform="translate(-144.5 -333.4)"/><path class="cls-22" d="M229.67,355.93h0l-.13,0h-.12l-.08,0h-.17s0,0,0,0,0,0,0,0l0,0s0,0,.06,0h.06s.07,0,.09,0h.09l.13,0s.1,0,.11,0h.08s0,0,0,.07S229.68,355.94,229.67,355.93Zm0,.28h-.3l-.08,0h-.07s0,0-.06,0h0s0,0,0,0a0,0,0,0,1,0-.05h0l.07,0h.15l.09,0h.14s.09,0,.1,0h0s0,0,0,0a.06.06,0,0,1,0,.07Z" transform="translate(-144.5 -333.4)"/><path class="cls-22" d="M230.44,355.84h-.05a.53.53,0,0,1-.12,0h-.13l-.08,0h-.16s0,0,0,0,0,0,0,0l0,0a.07.07,0,0,1,.06,0H230s.07,0,.09,0l.09,0,.13,0s.09,0,.11,0h.07s0,.06,0,.07S230.45,355.85,230.44,355.84Zm0,.28s0,0-.05,0h-.26l-.07,0h-.2a0,0,0,0,1,0-.06h0a.08.08,0,0,1,.07,0H230s.07,0,.09,0h.22a.22.22,0,0,1,.11,0h.07s0,0,0,.07S230.47,356.13,230.46,356.12Z" transform="translate(-144.5 -333.4)"/><path class="cls-22" d="M231.21,355.75h0a.61.61,0,0,1-.13,0h-.37s0,0,0,0,0,0,0,0l0,0,.07,0h.06s.07,0,.09,0l.09,0h.13s.09,0,.11,0h0s0,0,0,0a.06.06,0,0,1,0,.07Zm0,.28s0,0,0,0h-.25l-.08,0h-.16s0,0,0,0a0,0,0,0,1,0-.05v0a.1.1,0,0,1,.07,0h.06s.07,0,.09,0h.22s.09,0,.11,0h0s0,0,0,0,0,.05,0,.06S231.24,356,231.23,356Z" transform="translate(-144.5 -333.4)"/><path class="cls-22" d="M232,355.39a.2.2,0,0,1,0,.11.11.11,0,0,1-.05.08s0,0,0-.08a.34.34,0,0,1,0-.1c0-.06,0-.19.08-.18S232,355.32,232,355.39Zm.22-.06s0,0,0,0,0,.06,0,.09a.31.31,0,0,0,0,.08s0,0,0,0a.07.07,0,0,1,0,.05s-.06,0-.08,0a.09.09,0,0,0,0-.05s0-.06,0-.1,0-.1,0-.13,0-.06.07-.07A.07.07,0,0,0,232.25,355.33Z" transform="translate(-144.5 -333.4)"/><path class="cls-22" d="M233.11,355.72v0s0,0,0,.06,0,.1,0,.12V356l0,0h0a.1.1,0,0,1,0-.06.52.52,0,0,1-.06-.13c0-.05,0-.06-.08-.05l0,0h-.05l-.05,0h-.07l-.06,0v0l0,0h0a.61.61,0,0,1,0,.11c0,.06,0,.09-.06.09s0,0,0,0,0-.05,0-.07v0s0,0,0-.08v-.05h0a0,0,0,0,1,0,0,.19.19,0,0,0,0-.1v-.14c0-.05,0-.12.05-.15l0,0s0,0,0,0a.21.21,0,0,0,.07-.11h0l0,0h0l0,0s0,0,0,0l0,.05,0,0h0v0h0v0l0,0h0l0,0s0,.09.06.12h0l.07,0h0v0h0Zm-.24-.12h0v0a.07.07,0,0,0,0-.05s0-.09-.08-.1h0a.16.16,0,0,0-.05.11v.08l0,0a.89.89,0,0,0,0,.11h0s.07,0,.09-.06h.05l.09,0,0,0Z" transform="translate(-144.5 -333.4)"/><path class="cls-22" d="M233.26,355.23a.61.61,0,0,1,.05.12s0,.06.05.1a0,0,0,0,0,0,.05s-.07,0-.09,0,0,0,0,0l0,0,0-.08a.41.41,0,0,1,0-.08,0,0,0,0,1,0,0s0,0,0-.06S233.23,355.19,233.26,355.23Zm.14-.15s.06.11.08.16,0,.07,0,.1l0,.05,0,0s-.05,0-.07-.06a.37.37,0,0,1-.05-.11s0-.07,0-.1a.13.13,0,0,1,0-.07Z" transform="translate(-144.5 -333.4)"/><path class="cls-22" d="M234,355.06l0,.05s0,0,0,.06a.14.14,0,0,1,0,.11.82.82,0,0,1,0,.27.18.18,0,0,0,0,.1.93.93,0,0,1-.05.1s0,.05,0,.05l0,0s0,.05-.05.07,0,.06,0,.07-.06.05-.07.1-.05,0-.08.06-.06.06,0,0,0-.05,0-.07,0,0,0,0,0,0,0,0,0-.05,0-.09a.28.28,0,0,1,.06-.08s0,0,0-.06l0,0a.57.57,0,0,0,0-.14s0-.1,0-.12,0-.05,0-.07,0-.06,0-.09a.35.35,0,0,0-.1-.2.3.3,0,0,0-.08-.08l-.07-.05s0,0,0-.08,0,0,.06-.06.1.09.17.13S234,355,234,355.06Z" transform="translate(-144.5 -333.4)"/><path class="cls-22" d="M235.41,355.14s.07.07,0,.11a.26.26,0,0,0-.15,0s-.08.1-.11.14a.62.62,0,0,0-.1.35s0,.09,0,.12-.11,0-.13,0,0-.06,0-.09,0-.05,0-.08a.16.16,0,0,0,0-.07v0s0,0,0-.06,0-.07,0-.12l0,0s.05,0,.07,0,0,.1.05.11,0,0,0-.06,0,0,.05-.07.06-.09.09-.14a.28.28,0,0,1,.13-.11h.06S235.38,355.12,235.41,355.14Z" transform="translate(-144.5 -333.4)"/><path class="cls-22" d="M236.17,355.26c0,.06,0,.1,0,.1h0a.08.08,0,0,0-.06,0h-.33a.08.08,0,0,0,0,0l0,0,0,0,.06,0,.07,0h.18l.05,0a.17.17,0,0,0,.11-.06l0,0h0a0,0,0,0,1,0,0v0q0,.08-.15.15l-.08,0H236a.17.17,0,0,1-.1,0l0,0h-.07l-.1-.09a.17.17,0,0,1-.06-.12v-.06s0,0,0,0v0a.13.13,0,0,1,0-.06v-.05a.23.23,0,0,1,.1-.14.44.44,0,0,1,.16-.06.43.43,0,0,1,.19.06.34.34,0,0,1,.12.16S236.17,355.24,236.17,355.26Zm-.45-.07v0s0,0,0,0H236s0,0,0,0v0a.09.09,0,0,0-.07-.06h-.11l0,0h0l0,0Z" transform="translate(-144.5 -333.4)"/><path class="cls-22" d="M236.66,354.6s0,.07,0,.11a.16.16,0,0,0,0,.12.25.25,0,0,0,0,.09s.06,0,.06,0,0,0,.08,0,.13,0,.11.07-.09.08-.16.08-.08,0-.07,0,0,0,0,.07,0,0,0,0,0,.07,0,.11a.65.65,0,0,1,0,.13s0,.1,0,.09a.22.22,0,0,0,.11-.05s.09-.05.11,0a.09.09,0,0,1,0,.11l-.1.07a.2.2,0,0,1-.13,0l-.09,0c-.05,0-.05,0-.07-.08a1.59,1.59,0,0,1-.06-.3.66.66,0,0,1,0-.14s0,0,0,0h-.16a.11.11,0,0,1-.11,0s0,0,0-.07.05,0,.07-.05,0,0,.09,0,.09,0,.12,0h0a.31.31,0,0,0,0-.1.22.22,0,0,1,0-.08.22.22,0,0,1,0-.08.26.26,0,0,1,0-.1s0,0,.06,0S236.65,354.59,236.66,354.6Z" transform="translate(-144.5 -333.4)"/><path class="cls-22" d="M237.23,355.11a.66.66,0,0,0,0,.14s0,0,0,.05,0,0,0,0v0s.06.07.09.07l.09,0a.11.11,0,0,0,.09,0,.14.14,0,0,0,.05-.11s0-.05,0-.08,0-.08,0-.1,0-.1-.08-.11,0-.09,0-.08l0,0,.07,0s0,0,0,.07,0,0,0,0v.07s0,.07,0,.11,0,.11,0,.16-.07.09-.11.11a.28.28,0,0,1-.22,0,.31.31,0,0,1-.15-.1c-.05-.06-.06-.14-.11-.2a.5.5,0,0,1,0-.17.13.13,0,0,1,0-.06s0-.05.05-.08.09,0,.1,0A.14.14,0,0,1,237.23,355.11Z" transform="translate(-144.5 -333.4)"/><path class="cls-22" d="M238.46,354.79s.08.07,0,.12a.19.19,0,0,0-.15,0s-.08.09-.11.13a.57.57,0,0,0-.1.35s0,.1,0,.13a.12.12,0,0,1-.13,0s0-.06,0-.09a.29.29,0,0,0,0-.09s0,0,0-.07,0,0,0,0l0-.06s0-.07,0-.12l0,0s0,0,.07,0,0,.1.05.12,0,0,0-.06,0,0,0-.07.07-.1.09-.14a.23.23,0,0,1,.13-.11s0,0,.07,0A0,0,0,0,1,238.46,354.79Z" transform="translate(-144.5 -333.4)"/><path class="cls-22" d="M239.21,354.87s0,0,0,0,0,0,0,0,0,.09.05.14l0,.06s0,.12,0,.12h0s0,0,0,0l-.05,0s0,0,0,0a1.31,1.31,0,0,0-.12-.27s-.06-.09-.07-.09,0,.06-.05.1l0,.11s0,.05,0,.08,0,.05,0,.07a.11.11,0,0,0,0,.08s0,.07,0,.07a.09.09,0,0,1-.08,0,.08.08,0,0,1,0-.07.27.27,0,0,1,0-.09.07.07,0,0,1,0-.05l0-.05a.08.08,0,0,1,0-.06.62.62,0,0,1,0-.22,0,0,0,0,1,0,0,.06.06,0,0,1,.06,0,.24.24,0,0,1,0,.07s0,.11,0,.12l0-.08s0-.05,0-.09a.14.14,0,0,1,.05-.08H239a.08.08,0,0,1,.08,0l.07.06Z" transform="translate(-144.5 -333.4)"/><path class="cls-22" d="M240.05,354.49a.61.61,0,0,1,0,.11s0,0-.05.07,0,0,0-.07,0-.07,0-.11,0-.18.09-.18S240.05,354.41,240.05,354.49Zm.22-.07s0,0,0,0a.31.31,0,0,1,0,.08.29.29,0,0,1,0,.09s0,0,0,0a.06.06,0,0,1,0,0s-.06,0-.09,0a.06.06,0,0,0,0,0s0-.07,0-.11a.25.25,0,0,1,0-.12c0-.05,0-.07.07-.07S240.24,354.4,240.27,354.42Z" transform="translate(-144.5 -333.4)"/><path class="cls-22" d="M240.47,354.26s0,.08,0,.13a.61.61,0,0,0,0,.13s0,.1,0,.09a.73.73,0,0,0,.08-.09l0,0s0,0,.06,0,0,0,.06,0h.06s.07,0,.1,0a.15.15,0,0,1,.06.14.47.47,0,0,1,0,.17.54.54,0,0,1-.08.19l-.07.05s0,0,0,0a0,0,0,0,1,0,0,.53.53,0,0,1-.15.11l-.08,0s0,0-.07-.05l0,0s0,0,0,0,0-.09,0-.14,0-.06,0-.09l0,0v-.06a.53.53,0,0,0,0-.12c0-.05,0-.1,0-.14a.24.24,0,0,1,0-.12s0-.06,0-.1,0-.11,0-.16a.09.09,0,0,1,0-.07l.05,0a.09.09,0,0,1,0,.09A.17.17,0,0,0,240.47,354.26Zm.16.64s0,0,0,.07,0,.06,0,0l.09-.05.06,0s0,0,0-.06,0,0,0,0a.16.16,0,0,0,.05-.1c0-.05,0-.14,0-.17s-.1,0-.13.05-.09.06-.09.11,0,.11,0,.14A.43.43,0,0,0,240.63,354.9Z" transform="translate(-144.5 -333.4)"/><path class="cls-22" d="M241.31,354.19a.19.19,0,0,0,0,.08.16.16,0,0,0,0,.07v.08a.14.14,0,0,0,0,.09,1,1,0,0,1,0,.17.39.39,0,0,0,0,.15.94.94,0,0,0,0,.16s0,.05,0,.07l-.06,0c-.06,0-.08,0-.08,0a.85.85,0,0,1,0-.16,1.27,1.27,0,0,1,0-.28.13.13,0,0,0,0-.06s0,0,0-.07a.41.41,0,0,0,0-.11s0,0,0-.05a.57.57,0,0,1,0-.13s0-.07,0-.1,0,0,0,0,.06,0,.07,0S241.31,354.15,241.31,354.19Z" transform="translate(-144.5 -333.4)"/><path class="cls-22" d="M241.64,354.61a.66.66,0,0,0,0,.14.14.14,0,0,0,0,.06s0,0,0,0,0,0,0,0a.2.2,0,0,0,.08.08h.09a.14.14,0,0,0,.1,0,.19.19,0,0,0,.05-.1s0-.06,0-.09a.33.33,0,0,0,0-.1s0-.1-.09-.11,0-.09,0-.08l0,0,.06,0s0,0,0,.07,0,0,0,0v.07s0,.07,0,.11,0,.11,0,.16-.07.09-.11.11a.24.24,0,0,1-.22,0,.31.31,0,0,1-.15-.1c0-.06-.06-.14-.11-.2a.47.47,0,0,1,0-.17.13.13,0,0,1,0-.06s0-.05.05-.08.08,0,.1,0A.36.36,0,0,1,241.64,354.61Z" transform="translate(-144.5 -333.4)"/><path class="cls-22" d="M242.85,354.51c0,.06,0,.09,0,.1h0a.06.06,0,0,0-.06,0h-.15a.08.08,0,0,0-.07,0l-.12,0v0s0,0,0,0l0,0,.06,0,.07,0h.24a.2.2,0,0,0,.1-.07l0,0h0s0,0,0,0v0c0,.05-.05.1-.16.15l-.07,0-.06,0,0,0a.2.2,0,0,1-.1,0l0,0-.07,0-.1-.09a.14.14,0,0,1-.06-.11s0,0,0-.07l0,0v0a.18.18,0,0,1,0-.06.08.08,0,0,0,0-.05.29.29,0,0,1,.11-.14.27.27,0,0,1,.34,0,.37.37,0,0,1,.12.17A.07.07,0,0,1,242.85,354.51Zm-.45-.08v0s0,0,0,0h.22s0,0,0,0h0a.11.11,0,0,0-.08-.07h-.13l0,0,0,0Z" transform="translate(-144.5 -333.4)"/><path class="cls-22" d="M243.1,354.12s.06.08.05.12,0,.06,0,.09a0,0,0,0,0,0,.05s-.07,0-.09,0a.06.06,0,0,1,0,0s0,0,0,0l0-.08,0-.08s0,0,0,0,0,0,0-.06S243.08,354.07,243.1,354.12Zm.14-.15c.06,0,.07.11.09.16a.34.34,0,0,1,0,.1l0,0s0,0,0,0,0,0-.07-.06a.31.31,0,0,1-.05-.1s0-.07-.05-.11a.09.09,0,0,1,0-.06S243.23,354,243.24,354Z" transform="translate(-144.5 -333.4)"/><path class="cls-22" d="M243.88,354.7a.41.41,0,0,1,0,.19.12.12,0,0,1-.05.07s0,0,0,0l0,0s0,.05-.07.06,0,0,0,0h0a0,0,0,0,0,0,0s0,0,0,0,0,0,0-.05l.08-.08a.11.11,0,0,0,.06-.09.71.71,0,0,0,0-.15s0-.06,0-.09,0,0,0,0,0,0,0,0a.07.07,0,0,1,.06,0S243.88,354.66,243.88,354.7Zm-.08-.46s0,.07,0,.11l-.07,0,0-.05a.06.06,0,0,1,0-.06.15.15,0,0,0,0-.08h0Z" transform="translate(-144.5 -333.4)"/><path class="cls-22" d="M225.47,359l0,0a.07.07,0,0,1,0-.05l0,0,0,0,.1,0a.53.53,0,0,0,.18-.05h0s0,0,0,0a.06.06,0,0,1,0,.07s0,0,0,0a.1.1,0,0,0-.09,0s0,0,0,.06a.38.38,0,0,0,0,.1c0,.06,0,.13,0,.19a.74.74,0,0,1,0,.12s0,0,0,.05.05,0,.07,0h0a.07.07,0,0,1,.07,0l0,0a.17.17,0,0,1,0,.07s-.06.05-.09.06h0a.39.39,0,0,0-.15,0,1,1,0,0,1-.17,0s0,0-.05,0h0l0,0s0,0,0,0a.08.08,0,0,1,.08,0l.06,0,.06,0s0-.07,0-.1a0,0,0,0,1,0,0s0,0,0,0,0-.05,0-.07a.5.5,0,0,0,0-.12s0-.06,0-.09,0-.06,0-.09h-.06S225.5,359,225.47,359Z" transform="translate(-144.5 -333.4)"/><path class="cls-22" d="M226.61,359.08l0,.05s0,0,0,0a.78.78,0,0,1,.05.14s0,0,0,.07,0,.12,0,.12h0s0,0,0,0l0,0,0-.06a1.59,1.59,0,0,0-.12-.27.28.28,0,0,0-.06-.09c-.05,0,0,.06-.06.1l0,.11s0,.05,0,.08,0,.05,0,.07a.11.11,0,0,0,0,.08s0,.07,0,.07a.12.12,0,0,1-.09,0,.14.14,0,0,1,0-.07.27.27,0,0,1,0-.09.07.07,0,0,1,0,0l0-.05,0-.06a.47.47,0,0,1,0-.22s0,0,0,0a.06.06,0,0,1,0,0s0,0,0,.07,0,.11.05.12v-.08a.18.18,0,0,0,0-.09.2.2,0,0,1,0-.08h.09a.08.08,0,0,1,.07,0,.23.23,0,0,1,.07.07Z" transform="translate(-144.5 -333.4)"/><path class="cls-22" d="M227.25,358.81s.07,0,.09,0a.08.08,0,0,1,.09,0s0,0,0,.07a.26.26,0,0,1,0,.08.5.5,0,0,1,0,.13s0,0,0,.05v.08a.94.94,0,0,1,0,.16s0,.09,0,.12a.08.08,0,0,1-.08,0s-.05,0-.05-.07,0-.07,0-.11a.92.92,0,0,0,0-.16.15.15,0,0,1,0-.07s0,0,0-.07,0-.15-.11-.15,0,.05,0,.06,0,.07-.05.12,0,.09-.06.15a.18.18,0,0,1,0,.08.36.36,0,0,1,0,.1s0,0,0,.06a.09.09,0,0,1-.09,0,.17.17,0,0,1-.05-.14v0s0,0,0-.06a.3.3,0,0,0,0-.13.44.44,0,0,1,0-.1s0-.09,0-.12a1,1,0,0,1,0-.17.22.22,0,0,1,0-.08l0-.07s0-.05,0-.07l.06-.05h.06c.05,0,0,.05,0,.08s0,0,0,.06,0,.09,0,.12,0,.07,0,.09a.53.53,0,0,1,0,.12s0,.25.07.24,0,0,0-.06a.06.06,0,0,0,0,0s0,0,0,0a.75.75,0,0,0,.06-.13s0,0,0,0Z" transform="translate(-144.5 -333.4)"/><path class="cls-22" d="M227.83,358.6c0,.08,0,.06-.07.1s-.07,0-.07-.06,0,0,0-.05,0,0,.06-.06h.06Zm0,.4v.14a.17.17,0,0,1,0,.1s0,.05,0,.08a.11.11,0,0,1,0,.06.17.17,0,0,1,0,.07s-.05,0-.08,0-.06,0-.06,0l0,0a.15.15,0,0,1,0-.07.43.43,0,0,0,0-.11s0-.07,0-.1a.71.71,0,0,1,0-.2s0-.07,0-.09a0,0,0,0,1,0,0l0,0c.05,0,.05,0,.05.09A.49.49,0,0,1,227.88,359Z" transform="translate(-144.5 -333.4)"/><path class="cls-22" d="M228.11,358.47s0,.08,0,.13a.61.61,0,0,0,0,.13s0,.1,0,.09l.08-.08s0,0,0,0,0,0,.06,0,0,0,.06,0h.06a.09.09,0,0,1,.1,0,.18.18,0,0,1,.06.14,1.11,1.11,0,0,1,0,.17.51.51,0,0,1-.09.18s-.05,0-.07.06h0l0,0a.57.57,0,0,1-.15.12l-.08,0s0,0-.07-.06l0,0s0,0,0,0,0-.09,0-.14a.27.27,0,0,0,0-.09s0,0,0,0,0,0,0-.06,0-.08,0-.12a.59.59,0,0,0,0-.14.43.43,0,0,1,0-.12s0-.07,0-.1a.86.86,0,0,1,0-.16.1.1,0,0,1,0-.07s0,0,.05,0a.16.16,0,0,1,0,.09A.17.17,0,0,0,228.11,358.47Zm.15.64s0,0,0,.08,0,.06,0,0l.09-.05.06-.05s0,0,0-.05a.08.08,0,0,0,0-.05.16.16,0,0,0,.05-.09c0-.05,0-.15,0-.17s-.1,0-.13,0-.1.06-.09.11,0,.11,0,.15S228.27,359.1,228.26,359.11Z" transform="translate(-144.5 -333.4)"/><path class="cls-22" d="M228.92,358.49c0,.08,0,.06-.06.1s-.07,0-.07-.06v0s0,0,.06-.05h.06S228.92,358.47,228.92,358.49Zm.06.41V359s0,.07,0,.1,0,.05,0,.08a.11.11,0,0,1,0,.06.09.09,0,0,1,0,.07s-.05,0-.08,0-.06,0-.06,0l0,0a.15.15,0,0,1,0-.07.43.43,0,0,0,0-.11s0-.06,0-.1a1.38,1.38,0,0,1,0-.2s0-.06,0-.09,0,0,0,0,0,0,0,0,.05,0,.06.09A.53.53,0,0,1,229,358.9Z" transform="translate(-144.5 -333.4)"/><path class="cls-22" d="M229.51,358.24a.14.14,0,0,1,0,.11.45.45,0,0,0,0,.12.14.14,0,0,0,0,.09s.06,0,.06,0,0,0,.08,0,.13,0,.11.08-.09.07-.16.08-.08,0-.07,0,0,0,0,.07,0,0,0,.06a.18.18,0,0,0,0,.1l0,.14s0,.1.05.08a.16.16,0,0,0,.11-.05s.09-.05.11,0a.11.11,0,0,1,0,.12.27.27,0,0,1-.1.06.16.16,0,0,1-.13,0l-.09,0c-.05,0-.05,0-.07-.08a1.57,1.57,0,0,1,0-.3c0-.05,0-.09,0-.14a.08.08,0,0,0,0-.05h-.11s0,0,0,0-.07,0-.12,0,0,0,0-.07,0-.05.07-.05.05,0,.09,0,.09,0,.12,0h0a.31.31,0,0,0,0-.1.22.22,0,0,1,0-.08.22.22,0,0,0,0-.08s0-.06,0-.1,0,0,.06,0Z" transform="translate(-144.5 -333.4)"/><path class="cls-22" d="M230.54,358.71v.14a.52.52,0,0,1-.06.13s0,0,0,0l0,.05a.23.23,0,0,1-.1.07l-.1,0a.08.08,0,0,1-.1,0s-.05,0-.07,0,0,0,0-.05,0-.07-.05-.1a.17.17,0,0,1,0-.14.56.56,0,0,1,0-.12s0,0,0-.05,0,0,0-.06l.08-.08s.11,0,.14,0,.19,0,.26.06A.17.17,0,0,1,230.54,358.71Zm-.42,0s0,0,0,0a.27.27,0,0,0-.07.14,0,0,0,0,1,0,0s0,0,0,0a.21.21,0,0,0,0,.07.08.08,0,0,0,.08,0s0,0,.05,0,0,0,0,0,0,0,.07,0,.05,0,.06,0l0,0s0,0,0,0l0,0s0,0,0-.05a.57.57,0,0,0,0-.13c0-.08-.13-.06-.19-.07a.08.08,0,0,1-.08,0S230.13,358.69,230.12,358.71Z" transform="translate(-144.5 -333.4)"/><path class="cls-22" d="M231.28,358.46c.05,0,.08.07,0,.12a.26.26,0,0,0-.15,0,.38.38,0,0,0-.11.14.63.63,0,0,0-.11.35s0,.09,0,.12a.11.11,0,0,1-.14,0,.28.28,0,0,1,0-.09s0-.06,0-.09a.25.25,0,0,0,0-.07v0a.11.11,0,0,1,0-.06s0-.07,0-.11,0,0,0,0,0,0,.07,0,0,.1,0,.12,0,0,0-.06,0,0,0-.07.07-.1.1-.14a.24.24,0,0,1,.13-.11l.06,0A0,0,0,0,1,231.28,358.46Z" transform="translate(-144.5 -333.4)"/><path class="cls-22" d="M232.61,358.54c0,.06,0,.1-.05.1h0a0,0,0,0,0-.06,0h-.34v0a.05.05,0,0,0,0,0l0,0,.06,0,.07,0h.18l.06,0,.1-.06,0,0h0v0c0,.05-.05.1-.16.14l-.08,0,0,0,0,0a.18.18,0,0,1-.1,0l0,0-.07,0-.1-.09a.17.17,0,0,1-.06-.12.18.18,0,0,1,0-.06l0,0v0a.13.13,0,0,1,0-.06.07.07,0,0,0,0-.05.23.23,0,0,1,.1-.14.44.44,0,0,1,.16-.06.36.36,0,0,1,.19.07.27.27,0,0,1,.11.16A.07.07,0,0,1,232.61,358.54Zm-.44-.08v0s0,0,0,0h.22s.05,0,0,0h0a.1.1,0,0,0-.07-.07h-.17s0,0,0,0A0,0,0,0,0,232.17,358.46Z" transform="translate(-144.5 -333.4)"/><path class="cls-22" d="M233.42,358.25c.05,0,.08.07,0,.12a.26.26,0,0,0-.15,0s-.08.1-.11.14a.63.63,0,0,0-.11.35s0,.09,0,.12a.14.14,0,0,1-.14,0s0-.06,0-.09,0-.06,0-.09a.16.16,0,0,0,0-.07v0s0,0,0-.06,0-.07,0-.12l0,0s0,0,.07,0,0,.1,0,.12,0,0,.05-.06,0,0,0-.07.07-.1.1-.14a.24.24,0,0,1,.13-.11h.06S233.4,358.23,233.42,358.25Z" transform="translate(-144.5 -333.4)"/><path class="cls-22" d="M234.23,357.87a.49.49,0,0,1,0,.12l0,.14s0,.1,0,.08.06,0,.09-.08l0,0s0,0,.06,0,0,0,.05,0h.07a.12.12,0,0,1,.1,0,.28.28,0,0,1,.06.15.55.55,0,0,1,0,.17.58.58,0,0,1-.08.18s-.06,0-.07.06,0,0,0,0,0,0,0,0a.83.83,0,0,1-.15.11l-.09,0s-.05,0-.07-.05v0s0,0,0,0,0-.1,0-.15,0,0,0-.08,0,0,0-.05v-.05s0-.08,0-.13a.78.78,0,0,0,0-.14.23.23,0,0,1,0-.11s0-.07,0-.11,0-.11,0-.16a.06.06,0,0,1,0-.06.05.05,0,0,1,0,0,.07.07,0,0,1,0,.08A.2.2,0,0,0,234.23,357.87Zm.15.64s0,0,0,.07,0,.06,0,0l.09-.05.06,0s0,0,0-.06,0,0,0,0a.16.16,0,0,0,.05-.09c0-.06,0-.15,0-.18s-.1,0-.14,0-.09.05-.08.1,0,.11,0,.15S234.38,358.5,234.38,358.51Z" transform="translate(-144.5 -333.4)"/><path class="cls-22" d="M235.06,357.8v.09a.13.13,0,0,0,0,.06.27.27,0,0,1,0,.09s0,.06,0,.09a.86.86,0,0,1,0,.16.36.36,0,0,0,0,.15,1,1,0,0,0,0,.17.06.06,0,0,1,0,.07l-.07,0a.06.06,0,0,1-.08,0,.76.76,0,0,1,0-.15.94.94,0,0,1,0-.29.13.13,0,0,1,0-.06s0,0,0-.06a.4.4,0,0,1,0-.11s0,0,0-.06a.56.56,0,0,1,0-.13s0-.06,0-.09,0,0,.05-.06a.07.07,0,0,1,.07,0A.41.41,0,0,1,235.06,357.8Z" transform="translate(-144.5 -333.4)"/><path class="cls-22" d="M235.66,358.67l-.06,0a.68.68,0,0,1-.19,0c-.07,0-.12-.07-.13-.13a.2.2,0,0,1,0-.07s.05-.06.05-.09,0,0,0,0,0,0,0,0a.12.12,0,0,1,.08,0s0,0,.05,0h.08s.07,0,.05-.05,0-.07-.06-.08-.05-.06-.1,0-.08,0-.09,0l-.05,0s0,0,0,0h0v0l0,0,0,0,.07,0a.14.14,0,0,1,.09,0h.11s.09.06.11.09a.82.82,0,0,1,.1.24.59.59,0,0,0,0,.13s0,.07,0,.11a.29.29,0,0,1,0,.14s0,0,0,0h-.07l0,0s-.05,0-.06,0S235.68,358.67,235.66,358.67Zm0-1a.43.43,0,0,0,0,.05l0,0a.15.15,0,0,1-.06.05h-.12l0,0a.05.05,0,0,1-.05,0s0,0,0,0a0,0,0,0,0,0,0s0-.05,0-.07a.15.15,0,0,1,0-.07l0,0,0,0,0,0,.05,0,.07,0s.1,0,.11.1A.11.11,0,0,1,235.69,357.68Zm.05.69s0,0,0,0h-.1s-.07,0-.09,0a0,0,0,0,1,0,0l0,0a.08.08,0,0,0,0,.07l0,0s.06,0,.1,0a.11.11,0,0,0,.11,0c.06,0,.07,0,.08,0s0,0,0-.05A.11.11,0,0,0,235.74,358.37Zm-.28-.74s0,0,0,.05a.05.05,0,0,0,0,.05h0a.13.13,0,0,0,.07-.06v0a.08.08,0,0,0-.08,0h-.06Z" transform="translate(-144.5 -333.4)"/><path class="cls-22" d="M237.17,357.64a.17.17,0,0,0,.06.06s.07.09.06.13,0,.05,0,.05a.11.11,0,0,1-.08,0,.26.26,0,0,0-.13-.14l-.08,0a.07.07,0,0,0-.08,0s0,0,0,.07,0,.07,0,.11a1.1,1.1,0,0,0,0,.18s0,0,.07,0H237s0,0,.06,0,0,0,.06,0a.07.07,0,0,1,.06.06.08.08,0,0,1,0,.07h0s0,0,0,0H237l0,0h0s0,0-.06,0,0,.08,0,.1a.56.56,0,0,0,.07.18.19.19,0,0,1,0,.08s0,.05,0,.06h0l-.06-.07c0-.05,0-.09,0-.14a.53.53,0,0,0,0-.12s0-.06,0-.05-.16.07-.17.05h0l0,0,0,0s0,0,0,0l.06-.05s.07,0,.1,0l.09,0s0-.05,0-.08a1.11,1.11,0,0,1,0-.17.9.9,0,0,1,0-.16.18.18,0,0,1,.06-.09s0,0,.05,0l0,0a.37.37,0,0,1,.21.06S237.15,357.61,237.17,357.64Z" transform="translate(-144.5 -333.4)"/><path class="cls-22" d="M238,358s0,0,0,.08,0,0,0,.06,0,.1-.05.13,0,0,0,0,0,0,0,.05l-.1.07-.1,0a.12.12,0,0,1-.1,0s0,0-.06,0l0,0s0-.08-.05-.11a.22.22,0,0,1,0-.14.36.36,0,0,1,0-.11s0,0,0-.06,0,0,0-.05a.16.16,0,0,1,.07-.09s.11,0,.14,0,.19,0,.26.06A.18.18,0,0,1,238,358Zm-.42,0s0,0,0,0a.46.46,0,0,0-.07.14,0,0,0,0,1,0,0s0,0,0,0a.15.15,0,0,0,0,.07s.05,0,.08,0,0,0,0,0l0,0s0,0,.07,0,0,0,.05,0l0,0s0,0,0,0,0,0,0,0a.07.07,0,0,0,0,0,.57.57,0,0,0,0-.13c0-.07-.13-.06-.19-.06s-.05,0-.08,0S237.59,358,237.58,358Z" transform="translate(-144.5 -333.4)"/><path class="cls-22" d="M238.75,357.72s.07.07,0,.12a.2.2,0,0,0-.15,0s-.08.09-.11.13a.63.63,0,0,0-.11.35s0,.1,0,.13-.11,0-.13,0,0-.05,0-.09a.24.24,0,0,1,0-.08.16.16,0,0,0,0-.07v-.05a.33.33,0,0,1,0-.06s0-.07,0-.11l0,0s0,0,.07,0,0,.1.05.11,0,0,0-.06,0,0,0-.07a1.21,1.21,0,0,1,.1-.14.22.22,0,0,1,.13-.1s0,0,.06,0S238.72,357.71,238.75,357.72Z" transform="translate(-144.5 -333.4)"/><path class="cls-22" d="M239.48,357.52a.89.89,0,0,0,0,.14.43.43,0,0,0,0,.07c0,.06,0,.12,0,.17a.17.17,0,0,0,0,.07s0,0,0,.06a1,1,0,0,0,0,.17v.08l-.08,0s0,0,0-.05,0-.07,0-.09-.05,0-.07,0l-.09.05a.12.12,0,0,0-.08,0l-.06,0a.27.27,0,0,1-.29-.12.22.22,0,0,1,0-.11c0-.06,0-.11,0-.16a.13.13,0,0,0,0,0,.18.18,0,0,1,0-.07s.08-.06.13-.09a.39.39,0,0,1,.15-.06s.07,0,.06,0,0-.12,0-.15a.86.86,0,0,1,0-.16.14.14,0,0,1,0-.07s0,0,0,0,.05,0,.07,0a.08.08,0,0,0,0,0,.36.36,0,0,1,0,.11A.71.71,0,0,0,239.48,357.52Zm-.33.29s0,0-.05,0a.43.43,0,0,0,0,.07.22.22,0,0,0,0,.16c0,.07.09.09.15.09h.06s0,0,.08,0l.06,0s0,0,.05,0l0,0,0,0a.15.15,0,0,0,0-.06s0-.08,0-.12a.94.94,0,0,0,0-.09s0,0-.09,0l-.08,0A.36.36,0,0,0,239.15,357.81Z" transform="translate(-144.5 -333.4)"/><path class="cls-22" d="M239.88,357.41c0,.08,0,.06-.07.1s-.07,0-.07-.06a.06.06,0,0,0,0-.06s0,0,.06-.05h.06A.14.14,0,0,0,239.88,357.41Zm.05.4V358a.14.14,0,0,1,0,.09s0,.06,0,.09l0,.06a.17.17,0,0,1,0,.07s0,0-.08,0-.06,0-.06,0l0,0a.17.17,0,0,1,0-.07.43.43,0,0,0,0-.11s0-.07,0-.1a.75.75,0,0,1,0-.21s0-.06,0-.08,0,0,0,0,0,0,0,0,0,.05,0,.09A.62.62,0,0,1,239.93,357.81Z" transform="translate(-144.5 -333.4)"/><polyline class="cls-23" points="100 61.17 102.72 63.42 102.36 66.72 100.39 66.36"/><path class="cls-3" d="M241.25,402.56l6.39-.52-.37-2.73-2.6.3a3.25,3.25,0,0,1-2.76,1.71" transform="translate(-144.5 -333.4)"/><path class="cls-23" d="M248.71,387.54a46.93,46.93,0,0,1-1.5,9.29c-1.35,5.23-2.71-2.25-2.71-2.25l-.09-7.34" transform="translate(-144.5 -333.4)"/><path class="cls-3" d="M241.91,401.32a3.29,3.29,0,0,0,2.76-1.71l2.6-.3.37,2.73-6.39.52S240.64,401.42,241.91,401.32Z" transform="translate(-144.5 -333.4)"/><polyline class="cls-23" points="107.94 63.18 110.89 65.11 110.91 68.43 108.92 68.3"/><path class="cls-3" d="M255.73,401l-2.55.59a3.22,3.22,0,0,1-2.55,2s-.79.19-.52,1.31l6.29-1.24Z" transform="translate(-144.5 -333.4)"/><path class="cls-23" d="M252.44,396.59l-.92-7.28a5.31,5.31,0,0,1,.6-3.3,3,3,0,0,1,2.19-1.67c2.4-.33-1.2-1.83-1.2-1.83l3.86,2.25-1.14,4.36a47.51,47.51,0,0,1-.44,9.4C254.64,403.87,252.44,396.59,252.44,396.59Z" transform="translate(-144.5 -333.4)"/><path class="cls-3" d="M250.11,404.88l6.29-1.24-.67-2.66-2.55.59a3.22,3.22,0,0,1-2.55,2s-.79.19-.52,1.31" transform="translate(-144.5 -333.4)"/><path class="cls-9" d="M249.11,375.78s-2.88,7.42-6.29,11.53a9.69,9.69,0,0,0,5.77,1.43c3.18-.3,3.79-1,5.94-1s5.82.49,6.92,1.05,5.45-.19,5.94-.86-9.31-14.52-9.31-14.52Z" transform="translate(-144.5 -333.4)"/><path class="cls-23" d="M244.62,360.91l-2.54-2.61s0-.1-.12-.25c-.36-.7-1.48-2.57-3.09-1.74-2,1-.57.85-.57.85.29-.47,1.27.37,1.27.37s0,.09.06.15c-.78,0-1.4.29-1.21.56s1.08.15,1.45.74c.25.39.73.28,1,.16.21.39,1,1.76,1.76,3.11Z" transform="translate(-144.5 -333.4)"/><path class="cls-24" d="M252.26,365.05l.93-3.43s-3.4,1.6-9.11-3.21c0,0-2.57-.48-3,2.53s7.68,5,7.68,5Z" transform="translate(-144.5 -333.4)"/><path class="cls-23" d="M248.69,357.78c-2.15.52-1.13,3.6-1.13,3.6l-.15,2.4,2.13.19c-.29-1.52-.58-2.84-.58-2.84s.64-.35,0-2c0,0,.2-1.28.73-1.11C249.68,358.05,250.83,357.25,248.69,357.78Z" transform="translate(-144.5 -333.4)"/><path class="cls-25" d="M245.29,350.32c1.29-1.14,9-3.08,9-4.82,0-3.49-.1-6-4-6s-17.08,2.82-17.08,6.31,3.17,6.31,7.08,6.31a6.45,6.45,0,0,0,.76,0l4.72,4.42Z" transform="translate(-144.5 -333.4)"/><polygon class="cls-26" points="93.8 23.76 96.73 21.69 97.4 21.98 94.04 24.51 93.01 24.77 93.8 23.76"/><path class="cls-27" d="M252.74,352.34s3.15-2.46,4.83,1.05c0,0,3.93,1.26,1.46,4.4,0,0,2.76,3.72-.92,5.48,0,0-8.57,2.25-6-1.93l-.13-1.83Z" transform="translate(-144.5 -333.4)"/><path class="cls-27" d="M254.15,353s-1.12-2.53-2.69-.86a1.79,1.79,0,0,0-.71,1.45s-1.1,0-1.08.74,1.21.5,1.21.5l2.64-1.36Z" transform="translate(-144.5 -333.4)"/><path class="cls-23" d="M255.67,362.56l-.59-2.81,2.4-4L254.1,353l-1.28.23a1.91,1.91,0,0,0-1.1.64,6,6,0,0,1-2,1.58s-.69.26.81.69l-.41,1.24,1.34,2.05a8.42,8.42,0,0,0,.72,2.78C253.12,364.63,255.67,362.56,255.67,362.56Z" transform="translate(-144.5 -333.4)"/><path class="cls-23" d="M254.39,356.67c-.46,1-.83,2.59-1.6,2.74-1.26.24-3.18-.05-3-.88a6.61,6.61,0,0,1,.77-2.2c.11-.29.58,0,1.35.93.34.42.8,0,1.2-.58" transform="translate(-144.5 -333.4)"/><circle class="cls-7" cx="107.27" cy="21.52" r="0.24"/><rect class="cls-27" x="251.57" y="354.32" width="1.33" height="0.23" rx="0.11" transform="translate(81.66 455.28) rotate(-141.13)"/><ellipse class="cls-28" cx="251.77" cy="354.97" rx="0.78" ry="0.66" transform="translate(-327.58 4.6) rotate(-52.42)"/><line class="cls-29" x1="107.87" y1="21.91" x2="109.62" y2="23.07"/><path class="cls-30" d="M255.45,361.18c-2.47,1.34-3.7,0-3.7,0-.42.1-1.53,1.76-1.53,1.76-1.29,2.82-2,12.59-1.05,13.15,2.6,1.51,10.62-.24,10.62-.24C260.67,370.15,255.45,361.18,255.45,361.18Z" transform="translate(-144.5 -333.4)"/><path class="cls-31" d="M249.51,361.22a10.89,10.89,0,0,1-2-.05c-.39-.13-.91,5.77-.62,6.61s7.27,1.41,8,1.17,4.14-2.73,1.07-4.14S249.2,366,249.2,366,250.3,366.47,249.51,361.22Z" transform="translate(-144.5 -333.4)"/><path class="cls-27" d="M256.44,358.8a1,1,0,0,0-1.2-1.1c-.65.14-1.28.64-1.19,2.12a2.56,2.56,0,0,0,.58,1.88,1.65,1.65,0,0,0,.22,1.51c.53.53,2-.48,2-.48l1-.91c.6-1-.22-1.89-1-2.68l-.36-.34Z" transform="translate(-144.5 -333.4)"/><path class="cls-27" d="M253.53,355.91a2.78,2.78,0,0,0,.05-1.33c-.1-.22-1.66-.41-1.44-1.16s1.24-1.35,2.72-1.17a9.71,9.71,0,0,1,1.84.75,2.88,2.88,0,0,1,.68,4.47l-.06.06s-1.24,2.13-1.87,1.34-1-.72-.6-1.11c0,0,2-.93.57-1.84-.26-.17-1.08.27-1.14.44" transform="translate(-144.5 -333.4)"/><path class="cls-27" d="M237.1,347.55l.09.27a.38.38,0,0,0-.26.55l.23.62-.29.1-.45-1.24.25-.14.08.21A.48.48,0,0,1,237.1,347.55Z" transform="translate(-144.5 -333.4)"/><path class="cls-27" d="M238.69,348l.18.2a.88.88,0,0,1-.48.43.71.71,0,0,1-.93-.41.69.69,0,0,1,.43-.91.64.64,0,0,1,.82.33l-.86.67a.41.41,0,0,0,.45.08A.65.65,0,0,0,238.69,348Zm-1,.11.64-.5a.33.33,0,0,0-.38-.07A.44.44,0,0,0,237.72,348.06Z" transform="translate(-144.5 -333.4)"/><path class="cls-27" d="M239.22,347.08l.22.61a.18.18,0,0,0,.24.12.62.62,0,0,0,.16-.1l.09.25a.58.58,0,0,1-.21.12.4.4,0,0,1-.56-.26l-.23-.63-.19.07-.05-.26.15-.05-.09-.26.23-.26.15.41.35-.13.08.25Z" transform="translate(-144.5 -333.4)"/><path class="cls-27" d="M240.87,346.18l.47,1.29-.27.1,0-.15a.55.55,0,0,1-.33.32.5.5,0,0,1-.67-.35l-.28-.75.27-.15.28.76a.29.29,0,0,0,.38.21.32.32,0,0,0,.19-.44l-.26-.69Z" transform="translate(-144.5 -333.4)"/><path class="cls-27" d="M242,345.79l.1.27a.37.37,0,0,0-.26.54l.22.62-.28.11-.45-1.25.25-.13.07.2A.5.5,0,0,1,242,345.79Z" transform="translate(-144.5 -333.4)"/><path class="cls-27" d="M243.54,345.8l.28.77-.29.1-.27-.73a.28.28,0,0,0-.39-.21.32.32,0,0,0-.18.44l.26.71-.29.11-.45-1.25.26-.14.06.16a.54.54,0,0,1,.33-.31A.5.5,0,0,1,243.54,345.8Z" transform="translate(-144.5 -333.4)"/><path class="cls-27" d="M244.51,345l-.3.11v-.89l.24-.13Zm.52-.19-.3.11V344l.25-.13Z" transform="translate(-144.5 -333.4)"/><path class="cls-27" d="M247.09,344.65a.73.73,0,0,1-1.37.49l-.49-1.36.27-.15.34.95a.61.61,0,0,1,.37-.35A.68.68,0,0,1,247.09,344.65Zm-.27.11a.44.44,0,0,0-.55-.27.43.43,0,0,0-.26.57.42.42,0,0,0,.55.26A.43.43,0,0,0,246.82,344.76Z" transform="translate(-144.5 -333.4)"/><path class="cls-27" d="M246.9,343.17l.26-.14.75,2.05-.29.1Z" transform="translate(-144.5 -333.4)"/><path class="cls-27" d="M249,343.24l.47,1.29-.28.1-.05-.15a.53.53,0,0,1-.32.32.51.51,0,0,1-.68-.35l-.27-.75.27-.15.27.76a.29.29,0,0,0,.39.2.31.31,0,0,0,.18-.43l-.25-.69Z" transform="translate(-144.5 -333.4)"/><path class="cls-27" d="M250.72,343.58l.18.19a.94.94,0,0,1-.49.43.69.69,0,0,1-.92-.41.7.7,0,0,1,.43-.91.62.62,0,0,1,.81.34l-.86.67a.46.46,0,0,0,.46.08A.71.71,0,0,0,250.72,343.58Zm-1,.1.64-.5a.37.37,0,0,0-.38-.07A.44.44,0,0,0,249.74,343.68Z" transform="translate(-144.5 -333.4)"/><path class="cls-27" d="M250.71,341.82l.3-.11v.89l-.24.13Zm.52-.19.3-.11v.89l-.24.13Z" transform="translate(-144.5 -333.4)"/><path class="cls-27" d="M252.09,342.33a.22.22,0,0,1,.13-.28.21.21,0,0,1,.29.13.23.23,0,0,1-.13.28A.22.22,0,0,1,252.09,342.33Zm.32.65.31-.12v.93l-.26.14Z" transform="translate(-144.5 -333.4)"/><path class="cls-9" d="M176.24,366.12a1.66,1.66,0,0,1,1.13-1.07l.08.27a1.42,1.42,0,0,0-.75,2.18l-.23.16A1.68,1.68,0,0,1,176.24,366.12Z" transform="translate(-144.5 -333.4)"/><path class="cls-9" d="M177.69,366.45l-.21.6a.18.18,0,0,0,.11.25.65.65,0,0,0,.19,0l-.09.25a.54.54,0,0,1-.24,0,.4.4,0,0,1-.27-.56l.22-.63-.19-.07.12-.23.16.05.09-.26.34,0-.15.41.35.12-.08.25Z" transform="translate(-144.5 -333.4)"/><path class="cls-9" d="M179.59,366.83l-1.55,1.6-.31-.11.65-.63-.13-1.32.31.11.07,1,.65-.72Z" transform="translate(-144.5 -333.4)"/><path class="cls-9" d="M181,368a.69.69,0,0,1-.87.45.56.56,0,0,1-.36-.34l-.28.8-.29-.1.66-1.89.28.05-.07.21a.56.56,0,0,1,.52-.06A.68.68,0,0,1,181,368Zm-.28-.09a.43.43,0,0,0-.26-.56.43.43,0,0,0-.55.27.44.44,0,0,0,.26.56A.43.43,0,0,0,180.67,367.92Z" transform="translate(-144.5 -333.4)"/><path class="cls-9" d="M182.23,368.7l0,.26a.91.91,0,0,1-.65,0,.71.71,0,1,1,.45-1.34.64.64,0,0,1,.42.78l-1.09,0a.41.41,0,0,0,.3.35A.68.68,0,0,0,182.23,368.7Zm-.82-.54.81,0a.35.35,0,0,0-.25-.3A.44.44,0,0,0,181.41,368.16Z" transform="translate(-144.5 -333.4)"/><path class="cls-9" d="M183.28,368.69l1.21.42-.08.24-1.22-.42Zm.19-.56,1.22.43-.09.24-1.22-.42Z" transform="translate(-144.5 -333.4)"/><path class="cls-9" d="M184.73,369.19l1.22.43-.09.24-1.22-.43Zm.19-.55,1.22.42-.09.24-1.22-.42Z" transform="translate(-144.5 -333.4)"/><path class="cls-9" d="M186.18,369.7l1.22.42-.09.24-1.22-.42Zm.19-.56,1.22.42-.09.25-1.21-.43Z" transform="translate(-144.5 -333.4)"/><path class="cls-9" d="M188.6,370.06l-.3-.1.57-.69.27.05Zm.53.19-.3-.11.57-.69.27.05Z" transform="translate(-144.5 -333.4)"/><path class="cls-9" d="M190.18,371.29l-.73-.26-.45.49-.33-.12,1.66-1.73.22,2.39-.33-.12Zm0-.31,0-.67-.46.5Z" transform="translate(-144.5 -333.4)"/><path class="cls-9" d="M191.33,370.1l.3.1-.56.69-.28-.05Zm.53.18.3.11-.57.69-.27-.05Z" transform="translate(-144.5 -333.4)"/><path class="cls-9" d="M191.57,372.66a1.44,1.44,0,0,0,.93-.9,1.4,1.4,0,0,0-.18-1.28l.23-.16a1.69,1.69,0,0,1-.91,2.6Z" transform="translate(-144.5 -333.4)"/></svg>